<svg width="24" height="21" viewBox="0 0 24 21" fill="none" xmlns="http://www.w3.org/2000/svg"><path d="M20.21 8.081a1.162 1.162 0 0 1 1.64 0l1.81 1.807a1.162 1.162 0 0 1-.821 1.983h-.713c-.577 5.084-4.899 9.032-10.14 9.032a10.197 10.197 0 0 1-8.092-3.98 1.161 1.161 0 0 1 1.84-1.418 7.874 7.874 0 0 0 6.251 3.076 7.882 7.882 0 0 0 7.798-6.71h-.562a1.162 1.162 0 0 1-.82-1.983l1.808-1.807zM12.014 0c3.31 0 6.254 1.576 8.117 4.014a1.162 1.162 0 0 1-1.845 1.41 7.874 7.874 0 0 0-6.272-3.102 7.881 7.881 0 0 0-7.798 6.71h.562a1.162 1.162 0 0 1 .82 1.984L3.792 12.82a1.162 1.162 0 0 1-1.641 0L.34 11.016a1.162 1.162 0 0 1 .821-1.984h.713C2.451 3.948 6.773 0 12.014 0z" fill="#676767"/></svg>
