<svg width="21" height="24" viewBox="0 0 21 24" fill="none" xmlns="http://www.w3.org/2000/svg"><path d="M10.883.339a1.37 1.37 0 0 1 1.932.128L15.86 3.98c.019.018.019.037.037.055.018.019.036.019.036.037.037.055.055.129.091.202.037.092.092.166.11.258.018.092.018.165.036.257 0 .092.018.166.018.258s-.036.165-.072.257c-.037.092-.055.184-.092.258-.036.073-.109.147-.164.22-.054.055-.072.129-.127.166-.018.018-.037.018-.055.037-.018.018-.018.036-.036.036l-3.537 2.612a1.304 1.304 0 0 1-.802.257c-.42 0-.838-.202-1.112-.57a1.408 1.408 0 0 1 .292-1.93l1.02-.755c-.346-.018-.674-.055-1.02-.055-4.266 0-7.748 3.513-7.748 7.816s3.482 7.816 7.748 7.816c4.265 0 7.747-3.512 7.747-7.816a7.914 7.914 0 0 0-1.294-4.34 1.38 1.38 0 0 1 .383-1.913 1.353 1.353 0 0 1 1.896.386 10.65 10.65 0 0 1 1.768 5.867c-.018 5.848-4.721 10.575-10.5 10.575S0 19.226 0 13.396C0 7.566 4.703 2.821 10.482 2.821c.255 0 .528.037.784.056l-.51-.589a1.399 1.399 0 0 1 .127-1.95z" fill="#676767"/></svg>
